# xmcd
#
# Track frame offsets:
# 150
# 17046
# 35631
# 50834
# 64556
# 89203
# 101916
# 117632
# 135544
# 147100
# 165064
# 182322
# 200796
# 214339
#
# Disc length: 3073 seconds
#
#
# Revision: 0
# Processed by: cddbd v1.5.2PL0 Copyright (c) Steve Scherf et al.
# Submitted via: Nero 7, 11, 10, 0 
#
DISCID=d10bff0e
DTITLE=Dmitri Resnik - Learnin' My Lessons The Hard Way
DYEAR=2002
DGENRE=Blues
TTITLE0=Drivin' Man
TTITLE1=Country Girl
TTITLE2=Baby Hold On
TTITLE3=Incidental Mambo
TTITLE4=Down That Line
TTITLE5=Miss Ann's Tempo
TTITLE6=Learnin' My Lessons The Hard Way
TTITLE7=Ready To Rock
TTITLE8=Curly Cue
TTITLE9=Lying To Myself
TTITLE10=Second Line Slide
TTITLE11=Five Kisses
TTITLE12=A Closer Walk With Thee
TTITLE13=Untitled Hidden Track
EXTD=
EXTT0=Drivin' Man
EXTT1=Country Girl
EXTT2=Baby Hold On
EXTT3=Incidental Mambo
EXTT4=Down That Line
EXTT5=Miss Ann's Tempo
EXTT6=Learnin' My Lessons The Hard Way
EXTT7=Ready To Rock
EXTT8=Curly Cue
EXTT9=Lying To Myself
EXTT10=Second Line Slide
EXTT11=Five Kisses
EXTT12=A Closer Walk With Thee
EXTT13=Untitled Hidden Track
PLAYORDER=
